<svg xmlns="http://www.w3.org/2000/svg" viewBox="0 0 88.49 88.49" id="discord"><g data-name="Layer 2"><g data-name="Layer 1"><path fill="#f9f9f9" d="M86.16 85.31q-20.61-20.05-41.4-40.76-21-21-41.4-41.72l82.9.39Z"></path><rect width="84.49" height="84.49" x="2" y="2" fill="none" stroke="#000" stroke-miterlimit="10" stroke-width="4" rx="6.09"></rect><path d="M69.23 52.82c0 1.29 0 2.48-.13 3.67a1.1 1.1 0 0 1-.47.89A39.71 39.71 0 0 1 57.5 63a.55.55 0 0 1-.7-.23c-.75-1.12-1.47-2.26-2.1-3.44-.18-.33-.06-.46.24-.58a23.1 23.1 0 0 0 3.14-1.49c.28-.16.36-.24.09-.51-.52-.51-.54-.54-1.18-.26a28.71 28.71 0 0 1-13 2.37 28.35 28.35 0 0 1-9.73-2.37 1.1 1.1 0 0 0-1.15.44c-.08.17 0 .2.14.28a9.58 9.58 0 0 0 2 1.08 11.58 11.58 0 0 0 1.26.53c.32.11.31.25.18.51a31.86 31.86 0 0 1-2.08 3.4.45.45 0 0 1-.59.2l-1.73-.59a35 35 0 0 1-9.52-5 .73.73 0 0 1-.35-.6 39.51 39.51 0 0 1 1.92-16.4 43.79 43.79 0 0 1 4.91-9.85 1.07 1.07 0 0 1 .49-.4 38.47 38.47 0 0 1 9-2.81.52.52 0 0 1 .65.34c.26.54.57 1.05.78 1.61a.64.64 0 0 0 .84.45 30.45 30.45 0 0 1 3.69-.32 34.17 34.17 0 0 1 5.54.28c.13 0 .27 0 .41.05a.51.51 0 0 0 .66-.36c.22-.56.53-1.07.76-1.62a.61.61 0 0 1 .78-.42A40 40 0 0 1 61.58 30a1.94 1.94 0 0 1 .83.75 42.8 42.8 0 0 1 3.74 6.92 38.65 38.65 0 0 1 3 11.91c.06 1.08.05 2.21.08 3.24Zm-20-6.29A4.91 4.91 0 0 0 50.4 50a3.87 3.87 0 0 0 5.88.43 5.15 5.15 0 0 0 .72-6.25 3.94 3.94 0 0 0-5.79-1.29 4.59 4.59 0 0 0-1.94 3.64Zm-15.6.39a4.6 4.6 0 0 0 1.79 3.79 3.86 3.86 0 0 0 5.17-.23 5.07 5.07 0 0 0 .4-6.73 3.94 3.94 0 0 0-5.29-.94 4.8 4.8 0 0 0-2.03 4.11Z"></path></g></g></svg>