<svg xmlns="http://www.w3.org/2000/svg" width="500" height="500" style="width:100%;height:100%;transform:translate3d(0,0,0);content-visibility:visible" viewBox="0 0 500 500"><defs><clipPath id="v"><path d="M0 0h500v500H0z"/></clipPath><clipPath id="I"><path d="M0 0h500v500H0z"/></clipPath><clipPath id="E"><path d="M0 0h500v500H0z"/></clipPath><clipPath id="p"><path d="M0 0h500v500H0z"/></clipPath><clipPath id="F"><path d="M0 0h500v500H0z"/></clipPath><clipPath id="A"><path d="M0 0h500v500H0z"/></clipPath><clipPath id="r"><path d="M0 0h500v500H0z"/></clipPath><clipPath id="B"><path d="M0 0h500v500H0z"/></clipPath><clipPath id="w"><path d="M0 0h500v500H0z"/></clipPath><clipPath id="t"><path d="M0 0h500v500H0z"/></clipPath><clipPath id="x"><path d="M0 0h500v500H0z"/></clipPath><mask id="q" mask-type="alpha"><g filter="url(#a)"><path fill="#fff" d="M0 0h500v500H0z" opacity="0"/><use xmlns:ns1="http://www.w3.org/1999/xlink" ns1:href="#b"/></g></mask><mask id="H" mask-type="alpha"><use xmlns:ns2="http://www.w3.org/1999/xlink" ns2:href="#c"/></mask><mask id="G" mask-type="alpha"><g filter="url(#d)"><path fill="#fff" d="M0 0h500v500H0z" opacity="0"/><use xmlns:ns3="http://www.w3.org/1999/xlink" ns3:href="#e"/></g></mask><mask id="s" mask-type="alpha"><g filter="url(#f)"><path fill="#fff" d="M0 0h500v500H0z" opacity="0"/><use xmlns:ns4="http://www.w3.org/1999/xlink" ns4:href="#g"/></g></mask><mask id="D" mask-type="alpha"><use xmlns:ns5="http://www.w3.org/1999/xlink" ns5:href="#h"/></mask><mask id="C" mask-type="alpha"><g filter="url(#i)"><path fill="#fff" d="M0 0h500v500H0z" opacity="0"/><use xmlns:ns6="http://www.w3.org/1999/xlink" ns6:href="#j"/></g></mask><mask id="u" mask-type="alpha"><g filter="url(#k)"><path fill="#fff" d="M0 0h500v500H0z" opacity="0"/><use xmlns:ns7="http://www.w3.org/1999/xlink" ns7:href="#l"/></g></mask><mask id="z" mask-type="alpha"><use xmlns:ns8="http://www.w3.org/1999/xlink" ns8:href="#m"/></mask><mask id="y" mask-type="alpha"><g filter="url(#n)"><path fill="#fff" d="M0 0h500v500H0z" opacity="0"/><use xmlns:ns9="http://www.w3.org/1999/xlink" ns9:href="#o"/></g></mask><filter id="a" width="100%" height="100%" x="0%" y="0%" filterUnits="objectBoundingBox"><feComponentTransfer in="SourceGraphic"><feFuncA tableValues="1.0 0.0" type="table"/></feComponentTransfer></filter><filter id="d" width="100%" height="100%" x="0%" y="0%" filterUnits="objectBoundingBox"><feComponentTransfer in="SourceGraphic"><feFuncA tableValues="1.0 0.0" type="table"/></feComponentTransfer></filter><filter id="f" width="100%" height="100%" x="0%" y="0%" filterUnits="objectBoundingBox"><feComponentTransfer in="SourceGraphic"><feFuncA tableValues="1.0 0.0" type="table"/></feComponentTransfer></filter><filter id="i" width="100%" height="100%" x="0%" y="0%" filterUnits="objectBoundingBox"><feComponentTransfer in="SourceGraphic"><feFuncA tableValues="1.0 0.0" type="table"/></feComponentTransfer></filter><filter id="k" width="100%" height="100%" x="0%" y="0%" filterUnits="objectBoundingBox"><feComponentTransfer in="SourceGraphic"><feFuncA tableValues="1.0 0.0" type="table"/></feComponentTransfer></filter><filter id="n" width="100%" height="100%" x="0%" y="0%" filterUnits="objectBoundingBox"><feComponentTransfer in="SourceGraphic"><feFuncA tableValues="1.0 0.0" type="table"/></feComponentTransfer></filter><path id="b" fill="red" d="M304.963 218.14c0 30.355-24.608 54.96-54.964 54.96-30.355 0-54.964-24.605-54.964-54.96 0-30.356 24.609-54.964 54.964-54.964 30.356 0 54.964 24.608 54.964 54.964z" style="display:block"/><path id="e" fill="red" d="M304.963 218.14c0 30.355-24.608 54.96-54.964 54.96-30.355 0-54.964-24.605-54.964-54.96 0-30.356 24.609-54.964 54.964-54.964 30.356 0 54.964 24.608 54.964 54.964z" style="display:block"/><path id="g" fill="red" d="M304.963 218.14c0 30.355-24.608 54.96-54.964 54.96-30.355 0-54.964-24.605-54.964-54.96 0-30.356 24.609-54.964 54.964-54.964 30.356 0 54.964 24.608 54.964 54.964z" style="display:block"/><path id="j" fill="red" d="M304.963 218.14c0 30.355-24.608 54.96-54.964 54.96-30.355 0-54.964-24.605-54.964-54.96 0-30.356 24.609-54.964 54.964-54.964 30.356 0 54.964 24.608 54.964 54.964z" style="display:block"/><path id="l" fill="red" d="M304.963 218.14c0 30.355-24.608 54.96-54.964 54.96-30.355 0-54.964-24.605-54.964-54.96 0-30.356 24.609-54.964 54.964-54.964 30.356 0 54.964 24.608 54.964 54.964z" style="display:block"/><path id="o" fill="red" d="M304.963 218.14c0 30.355-24.608 54.96-54.964 54.96-30.355 0-54.964-24.605-54.964-54.96 0-30.356 24.609-54.964 54.964-54.964 30.356 0 54.964 24.608 54.964 54.964z" style="display:block"/><g id="c" clip-path="url(#p)" style="display:block"><g mask="url(#q)" style="display:block"><path fill="#4AB3FC" d="M304.963 218.14c0 30.355-24.608 54.96-54.964 54.96-30.355 0-54.964-24.605-54.964-54.96 0-30.356 24.609-54.964 54.964-54.964 30.356 0 54.964 24.608 54.964 54.964zm-165.805 36.998c-3.77-11.665-5.978-24.07-5.978-37.005 0-67.064 56.525-120.929 124.572-116.547 57.69 3.714 104.59 50.274 108.745 107.933 1.085 15.05-.823 29.509-4.84 43.001C342.902 315.475 250.01 408.2 250.01 408.2s-87.437-80.619-110.852-153.062z"/><path fill="#4AB3FC" fill-opacity=".5" d="M15.704-4.103C15.704 4.57 8.673 11.6 0 11.6c-8.673 0-15.704-7.03-15.704-15.703 0-8.673 7.031-15.704 15.704-15.704 8.673 0 15.704 7.031 15.704 15.704zM-31.669 6.468c-1.077-3.333-1.708-6.877-1.708-10.573 0-19.161 16.15-34.551 35.592-33.299 16.483 1.061 29.883 14.364 31.07 30.838.31 4.3-.235 8.431-1.383 12.286C26.544 23.707.003 50.2.003 50.2S-24.979 27.166-31.669 6.468z" style="mix-blend-mode:multiply" transform="matrix(3.5 0 0 3.5 250 232.5)"/><g fill-opacity="0" stroke="#4AB3FC" stroke-linecap="round" stroke-linejoin="round" stroke-width="1.2"><path stroke-width="4.2" d="M139.158 255.138c-3.77-11.665-5.978-24.07-5.978-37.005 0-67.064 56.525-120.929 124.572-116.547 57.69 3.714 104.59 50.274 108.745 107.933 1.085 15.05-.823 29.509-4.84 43.001C342.902 315.475 250.01 408.2 250.01 408.2s-87.437-80.619-110.852-153.062z"/><path stroke-opacity=".5" d="M-31.669 6.468c-1.077-3.333-1.708-6.877-1.708-10.573 0-19.161 16.15-34.551 35.592-33.299 16.483 1.061 29.883 14.364 31.07 30.838.31 4.3-.235 8.431-1.383 12.286C26.544 23.707.003 50.2.003 50.2S-24.979 27.166-31.669 6.468z" style="mix-blend-mode:multiply" transform="matrix(3.5 0 0 3.5 250 232.5)"/></g></g><path fill-opacity="0" stroke-linecap="round" stroke-linejoin="round" style="display:none"/></g><g id="h" clip-path="url(#r)" mask="url(#s)" style="display:block"><path fill="#4AB3FC" d="M304.963 218.14c0 30.355-24.608 54.96-54.964 54.96-30.355 0-54.964-24.605-54.964-54.96 0-30.356 24.609-54.964 54.964-54.964 30.356 0 54.964 24.608 54.964 54.964zm-165.805 36.998c-3.77-11.665-5.978-24.07-5.978-37.005 0-67.064 56.525-120.929 124.572-116.547 57.69 3.714 104.59 50.274 108.745 107.933 1.085 15.05-.823 29.509-4.84 43.001C342.902 315.475 250.01 408.2 250.01 408.2s-87.437-80.619-110.852-153.062z"/><path fill="#4AB3FC" fill-opacity=".5" d="M15.704-4.103C15.704 4.57 8.673 11.6 0 11.6c-8.673 0-15.704-7.03-15.704-15.703 0-8.673 7.031-15.704 15.704-15.704 8.673 0 15.704 7.031 15.704 15.704zM-31.669 6.468c-1.077-3.333-1.708-6.877-1.708-10.573 0-19.161 16.15-34.551 35.592-33.299 16.483 1.061 29.883 14.364 31.07 30.838.31 4.3-.235 8.431-1.383 12.286C26.544 23.707.003 50.2.003 50.2S-24.979 27.166-31.669 6.468z" style="mix-blend-mode:multiply" transform="matrix(3.5 0 0 3.5 250 232.5)"/><path fill-opacity="0" stroke="#4AB3FC" stroke-linecap="round" stroke-linejoin="round" stroke-width="4.2" d="M304.963 218.14c0 30.355-24.608 54.96-54.964 54.96-30.355 0-54.964-24.605-54.964-54.96 0-30.356 24.609-54.964 54.964-54.964 30.356 0 54.964 24.608 54.964 54.964zm-165.805 36.998c-3.77-11.665-5.978-24.07-5.978-37.005 0-67.064 56.525-120.929 124.572-116.547 57.69 3.714 104.59 50.274 108.745 107.933 1.085 15.05-.823 29.509-4.84 43.001C342.902 315.475 250.01 408.2 250.01 408.2s-87.437-80.619-110.852-153.062z"/><path fill-opacity="0" stroke="#4AB3FC" stroke-linecap="round" stroke-linejoin="round" stroke-opacity=".5" stroke-width="1.2" d="M15.704-4.103C15.704 4.57 8.673 11.6 0 11.6c-8.673 0-15.704-7.03-15.704-15.703 0-8.673 7.031-15.704 15.704-15.704 8.673 0 15.704 7.031 15.704 15.704zM-31.669 6.468c-1.077-3.333-1.708-6.877-1.708-10.573 0-19.161 16.15-34.551 35.592-33.299 16.483 1.061 29.883 14.364 31.07 30.838.31 4.3-.235 8.431-1.383 12.286C26.544 23.707.003 50.2.003 50.2S-24.979 27.166-31.669 6.468z" style="mix-blend-mode:multiply" transform="matrix(3.5 0 0 3.5 250 232.5)"/></g><g id="m" clip-path="url(#t)" mask="url(#u)" style="display:block"><path fill="#4AB3FC" d="M139.158 255.138c-3.77-11.665-5.978-24.07-5.978-37.005 0-67.064 56.525-120.929 124.572-116.547 57.69 3.714 104.59 50.274 108.745 107.933 1.085 15.05-.823 29.509-4.84 43.001C342.902 315.475 250.01 408.2 250.01 408.2s-87.437-80.619-110.852-153.062z"/><path fill="#4AB3FC" fill-opacity=".5" d="M-31.669 6.468c-1.077-3.333-1.708-6.877-1.708-10.573 0-19.161 16.15-34.551 35.592-33.299 16.483 1.061 29.883 14.364 31.07 30.838.31 4.3-.235 8.431-1.383 12.286C26.544 23.707.003 50.2.003 50.2S-24.979 27.166-31.669 6.468z" style="mix-blend-mode:multiply" transform="matrix(3.5 0 0 3.5 250 232.5)"/><g fill-opacity="0" stroke="#4AB3FC" stroke-linecap="round" stroke-linejoin="round" stroke-width="1.2"><path stroke-width="4.2" d="M139.158 255.138c-3.77-11.665-5.978-24.07-5.978-37.005 0-67.064 56.525-120.929 124.572-116.547 57.69 3.714 104.59 50.274 108.745 107.933 1.085 15.05-.823 29.509-4.84 43.001C342.902 315.475 250.01 408.2 250.01 408.2s-87.437-80.619-110.852-153.062z"/><path stroke-opacity=".5" d="M-31.669 6.468c-1.077-3.333-1.708-6.877-1.708-10.573 0-19.161 16.15-34.551 35.592-33.299 16.483 1.061 29.883 14.364 31.07 30.838.31 4.3-.235 8.431-1.383 12.286C26.544 23.707.003 50.2.003 50.2S-24.979 27.166-31.669 6.468z" style="mix-blend-mode:multiply" transform="matrix(3.5 0 0 3.5 250 232.5)"/></g></g></defs><g clip-path="url(#v)"><g clip-path="url(#w)" opacity="0" style="display:block"><g clip-path="url(#x)" mask="url(#y)" opacity="1" style="display:block"><path fill="#4AB3FC" d="M139.158 255.138c-3.77-11.665-5.978-24.07-5.978-37.005 0-67.064 56.525-120.929 124.572-116.547 57.69 3.714 104.59 50.274 108.745 107.933 1.085 15.05-.823 29.509-4.84 43.001C342.902 315.475 250.01 408.2 250.01 408.2s-87.437-80.619-110.852-153.062z"/><path fill="#4AB3FC" fill-opacity=".5" d="M-31.669 6.468c-1.077-3.333-1.708-6.877-1.708-10.573 0-19.161 16.15-34.551 35.592-33.299 16.483 1.061 29.883 14.364 31.07 30.838.31 4.3-.235 8.431-1.383 12.286C26.544 23.707.003 50.2.003 50.2S-24.979 27.166-31.669 6.468z" style="mix-blend-mode:multiply" transform="matrix(3.5 0 0 3.5 250 232.5)"/><g fill="none" stroke="#4AB3FC" stroke-linecap="round" stroke-linejoin="round" stroke-width="1.2"><path stroke-width="4.2" d="M139.158 255.138c-3.77-11.665-5.978-24.07-5.978-37.005 0-67.064 56.525-120.929 124.572-116.547 57.69 3.714 104.59 50.274 108.745 107.933 1.085 15.05-.823 29.509-4.84 43.001C342.902 315.475 250.01 408.2 250.01 408.2s-87.437-80.619-110.852-153.062z"/><path stroke-opacity=".5" d="M-31.669 6.468c-1.077-3.333-1.708-6.877-1.708-10.573 0-19.161 16.15-34.551 35.592-33.299 16.483 1.061 29.883 14.364 31.07 30.838.31 4.3-.235 8.431-1.383 12.286C26.544 23.707.003 50.2.003 50.2S-24.979 27.166-31.669 6.468z" style="mix-blend-mode:multiply" transform="matrix(3.5 0 0 3.5 250 232.5)"/></g></g><g mask="url(#z)" style="display:block"><path fill="#4AB3FC" d="M165.398 255.138c-3.77-11.665-5.978-24.07-5.978-37.005 0-67.064 56.525-120.929 124.572-116.547 57.69 3.714 104.59 50.274 108.745 107.933 1.085 15.05-.823 29.509-4.841 43.001-18.753 62.955-117.645 172.68-117.645 172.68s-81.438-97.619-104.853-170.062z"/></g><path fill="none" style="display:none"/><path fill="none" style="display:none"/></g><g clip-path="url(#A)" opacity="0" style="display:block"><g clip-path="url(#B)" mask="url(#C)" opacity="1" style="display:block"><path fill="#4AB3FC" d="M304.963 218.14c0 30.355-24.608 54.96-54.964 54.96-30.355 0-54.964-24.605-54.964-54.96 0-30.356 24.609-54.964 54.964-54.964 30.356 0 54.964 24.608 54.964 54.964zm-165.805 36.998c-3.77-11.665-5.978-24.07-5.978-37.005 0-67.064 56.525-120.929 124.572-116.547 57.69 3.714 104.59 50.274 108.745 107.933 1.085 15.05-.823 29.509-4.84 43.001C342.902 315.475 250.01 408.2 250.01 408.2s-87.437-80.619-110.852-153.062z"/><path fill="#4AB3FC" fill-opacity=".5" d="M15.704-4.103C15.704 4.57 8.673 11.6 0 11.6c-8.673 0-15.704-7.03-15.704-15.703 0-8.673 7.031-15.704 15.704-15.704 8.673 0 15.704 7.031 15.704 15.704zM-31.669 6.468c-1.077-3.333-1.708-6.877-1.708-10.573 0-19.161 16.15-34.551 35.592-33.299 16.483 1.061 29.883 14.364 31.07 30.838.31 4.3-.235 8.431-1.383 12.286C26.544 23.707.003 50.2.003 50.2S-24.979 27.166-31.669 6.468z" style="mix-blend-mode:multiply" transform="matrix(3.5 0 0 3.5 250 232.5)"/><path fill="none" stroke="#4AB3FC" stroke-linecap="round" stroke-linejoin="round" stroke-width="4.2" d="M304.963 218.14c0 30.355-24.608 54.96-54.964 54.96-30.355 0-54.964-24.605-54.964-54.96 0-30.356 24.609-54.964 54.964-54.964 30.356 0 54.964 24.608 54.964 54.964zm-165.805 36.998c-3.77-11.665-5.978-24.07-5.978-37.005 0-67.064 56.525-120.929 124.572-116.547 57.69 3.714 104.59 50.274 108.745 107.933 1.085 15.05-.823 29.509-4.84 43.001C342.902 315.475 250.01 408.2 250.01 408.2s-87.437-80.619-110.852-153.062z"/><path fill="none" stroke="#4AB3FC" stroke-linecap="round" stroke-linejoin="round" stroke-opacity=".5" stroke-width="1.2" d="M15.704-4.103C15.704 4.57 8.673 11.6 0 11.6c-8.673 0-15.704-7.03-15.704-15.703 0-8.673 7.031-15.704 15.704-15.704 8.673 0 15.704 7.031 15.704 15.704zM-31.669 6.468c-1.077-3.333-1.708-6.877-1.708-10.573 0-19.161 16.15-34.551 35.592-33.299 16.483 1.061 29.883 14.364 31.07 30.838.31 4.3-.235 8.431-1.383 12.286C26.544 23.707.003 50.2.003 50.2S-24.979 27.166-31.669 6.468z" style="mix-blend-mode:multiply" transform="matrix(3.5 0 0 3.5 250 232.5)"/></g><g mask="url(#D)" style="display:block"><path fill="#4AB3FC" d="M165.398 255.138c-3.77-11.665-5.978-24.07-5.978-37.005 0-67.064 56.525-120.929 124.572-116.547 57.69 3.714 104.59 50.274 108.745 107.933 1.085 15.05-.823 29.509-4.841 43.001-18.753 62.955-121.646 168.679-121.646 168.679s-77.437-93.618-100.852-166.061z"/></g><path fill="none" style="display:none"/><path fill="none" style="display:none"/></g><g clip-path="url(#E)" opacity="0" style="display:block"><path fill="none" stroke="#4AB3FC" stroke-linecap="round" stroke-linejoin="round" stroke-width="7" d="M0 0" opacity="1" style="display:block" transform="translate(250 250)"/><g clip-path="url(#F)" opacity="1" style="display:block"><g mask="url(#G)" style="display:block"><path fill="#4AB3FC" d="M304.963 218.14c0 30.355-24.608 54.96-54.964 54.96-30.355 0-54.964-24.605-54.964-54.96 0-30.356 24.609-54.964 54.964-54.964 30.356 0 54.964 24.608 54.964 54.964zm-165.805 36.998c-3.77-11.665-5.978-24.07-5.978-37.005 0-67.064 56.525-120.929 124.572-116.547 57.69 3.714 104.59 50.274 108.745 107.933 1.085 15.05-.823 29.509-4.84 43.001C342.902 315.475 250.01 408.2 250.01 408.2s-87.437-80.619-110.852-153.062z"/><path fill="#4AB3FC" fill-opacity=".5" d="M15.704-4.103C15.704 4.57 8.673 11.6 0 11.6c-8.673 0-15.704-7.03-15.704-15.703 0-8.673 7.031-15.704 15.704-15.704 8.673 0 15.704 7.031 15.704 15.704zM-31.669 6.468c-1.077-3.333-1.708-6.877-1.708-10.573 0-19.161 16.15-34.551 35.592-33.299 16.483 1.061 29.883 14.364 31.07 30.838.31 4.3-.235 8.431-1.383 12.286C26.544 23.707.003 50.2.003 50.2S-24.979 27.166-31.669 6.468z" style="mix-blend-mode:multiply" transform="matrix(3.5 0 0 3.5 250 232.5)"/><g fill="none" stroke="#4AB3FC" stroke-linecap="round" stroke-linejoin="round" stroke-width="1.2"><path stroke-width="4.2" d="M139.158 255.138c-3.77-11.665-5.978-24.07-5.978-37.005 0-67.064 56.525-120.929 124.572-116.547 57.69 3.714 104.59 50.274 108.745 107.933 1.085 15.05-.823 29.509-4.84 43.001C342.902 315.475 250.01 408.2 250.01 408.2s-87.437-80.619-110.852-153.062z"/><path stroke-opacity=".5" d="M-31.669 6.468c-1.077-3.333-1.708-6.877-1.708-10.573 0-19.161 16.15-34.551 35.592-33.299 16.483 1.061 29.883 14.364 31.07 30.838.31 4.3-.235 8.431-1.383 12.286C26.544 23.707.003 50.2.003 50.2S-24.979 27.166-31.669 6.468z" style="mix-blend-mode:multiply" transform="matrix(3.5 0 0 3.5 250 232.5)"/></g></g><path fill="none" style="display:none"/></g><g mask="url(#H)" style="display:block"><path fill="#4AB3FC" d="M165.398 255.138c-3.77-11.665-5.978-24.07-5.978-37.005 0-67.064 56.525-120.929 124.572-116.547 57.69 3.714 104.59 50.274 108.745 107.933 1.085 15.05-.823 29.509-4.841 43.001-18.753 62.955-125.646 164.679-125.646 164.679s-73.437-89.618-96.852-162.061z"/></g></g><g clip-path="url(#I)" style="display:block"><g fill="#4AB3FC" style="display:block"><path d="M366.505 209.757c-4.15-57.66-51.049-104.219-108.738-107.939-68.05-4.38-124.568 49.49-124.568 116.549 0 12.94 2.2 25.34 5.97 37.009 21.244 65.711 95.167 138.152 108.716 151.042a2.988 2.988 0 0 0 4.201-.071c13.774-14.065 92.486-96.203 109.58-153.591 4.02-13.49 5.93-27.95 4.84-43zm-116.488 63.579c-30.36 0-54.97-24.61-54.97-54.96 0-30.359 24.61-54.969 54.97-54.969 30.35 0 54.96 24.61 54.96 54.97 0 30.35-24.61 54.959-54.96 54.959z"/><path d="M-39.675-36.066c0-60.29 45.68-109.91 104.35-116.14-1.59-.17-3.18-.31-4.78-.41-68.05-4.38-124.57 49.49-124.57 116.55 0 12.94 2.2 25.34 5.97 37.01C-37.432 66.743 36.661 139.291 50.067 152.04a2.99 2.99 0 0 0 4.205-.079c.429-.439.939-.969 1.543-1.607-25.21-25.45-71.69-94.26-89.52-149.41-3.77-11.67-5.97-24.07-5.97-37.01z" opacity=".5" style="mix-blend-mode:multiply" transform="translate(198.147 254.431) scale(.99999)"/></g><g style="display:block"><path fill="#FDE3CA" d="M250 250"/><path fill="none" stroke="#4AB3FC" stroke-linecap="round" stroke-linejoin="round" stroke-width="7" d="M250 250"/></g></g><g class="com" style="display:none"><path/><path/><path/><path/><path/><path/><path/><path/><path/><path/><path/><path/></g></g></svg>